<?xml version="1.0" encoding="utf-8"?>
<!-- Generator: Adobe Illustrator 21.0.0, SVG Export Plug-In . SVG Version: 6.00 Build 0)  -->
<svg version="1.1" id="Calque_1" xmlns="http://www.w3.org/2000/svg" xmlns:xlink="http://www.w3.org/1999/xlink" x="0px" y="0px"
	 viewBox="0 0 296.7 445.3" style="enable-background:new 0 0 296.7 445.3;" xml:space="preserve">
<style type="text/css">
	.st0{fill:#FFFFFF;}
</style>
<title>36Bougies_blanc</title>
<g>
	<path class="st0" d="M196.3,246c-0.2,0-0.4,0.1-0.5,0.1C196,246.1,196.1,246,196.3,246L196.3,246z"/>
	<path class="st0" d="M226.1,159.2c14.2-7.4,20.9-24,16-39.2c-3.7-11.2-8.8-22-13-33c-2-4.8-3.6-9.8-4.8-14.8
		c-0.4-1.9-0.7-3.9-0.9-5.8c0.2,1.9,0.5,3.8,0.8,5.7c1.2,5.1,2.8,10,4.8,14.8c4.3,11,9.4,21.8,13,33
		C247,135.1,240.2,151.7,226.1,159.2c-8.6,4.6-18.6,5.8-28,3.1c-6-1.7-11.5-5.2-15-10.7c3.5,5.6,9.1,9.1,15.1,10.8
		C207.5,165,217.5,163.9,226.1,159.2z"/>
	<path class="st0" d="M185.7,143.9c-1.5-4.2-2.2-8.7-3.2-13l0.3-0.2l-0.4,0.1C183.4,135.2,184.1,139.7,185.7,143.9
		c0.7,2.1,1.9,4.2,3.4,5.9C187.6,148.1,186.4,146.1,185.7,143.9z"/>
	<path class="st0" d="M196.3,249.2C196.3,249.2,196.3,249.1,196.3,249.2c-0.3,1.3-0.5,2.6-0.7,4C195.8,251.9,196,250.5,196.3,249.2z
		"/>
	<path class="st0" d="M228.5,112.5c1,0.7,1.8,1.5,2.5,2.4C230.3,114,229.4,113.2,228.5,112.5c-1.9-1.4-3.4-2.7-4.8-4.1
		C225,109.8,226.6,111.2,228.5,112.5z"/>
	<path class="st0" d="M64.9,343.5c1.9-0.2,3.7-0.3,5.6-0.5C68.6,343.1,66.8,343.3,64.9,343.5c-11.4,1.1-24.5,13-25.1,23.4
		c-0.1,0.9-0.1,1.8-0.1,2.7c0-0.9,0-1.8,0.1-2.7C40.4,356.5,53.5,344.6,64.9,343.5z"/>
	<path class="st0" d="M78.6,404.3c-3.5,0.9-7.6,0.6-11.3-0.2s-7-2.6-10.3-4.3c-7.8-4-12.7-9.5-15.2-16.4c2.5,6.8,7.4,12.4,15.2,16.4
		c3.3,1.7,6.7,3.6,10.3,4.3C70.9,405,75.1,405.3,78.6,404.3c7.9-2.1,14.3-7.2,18.1-13.9C92.9,397.1,86.5,402.2,78.6,404.3z"/>
	<path class="st0" d="M205,82.8c2.8-2.9,6.8-4.9,10.6-6.6c1.4-0.6,2.6-0.5,3.4,0.3c-0.8-0.9-2-1.1-3.4-0.4
		C211.7,77.9,207.7,79.8,205,82.8c-11.5,12.2-17.6,27.3-21.8,43.3c-0.3,1.5-0.4,3-0.4,4.5c0-1.5,0.2-3,0.5-4.5
		C187.5,110.2,193.5,95.1,205,82.8z"/>
	<path class="st0" d="M165.3,314.5c-0.3-1.9-0.5-3.4-0.4-4.7c-0.1,1.3,0.1,2.9,0.4,4.8c0.9,5.2,0.6,10.2,0.1,15.2
		C165.8,324.7,166.2,319.7,165.3,314.5z"/>
	<path class="st0" d="M232.9,410.9c-5.5,0.5-11,1.1-16.4,1.2c-10.5,0.3-21,0.6-31.4,0.2c-3.8-0.2-7.8-1.8-11.2-3.7
		c-6-3.2-9.7-9.5-9.6-16.3c-0.1-15.6-0.1-31.2,0-46.8c0-0.6,0-1.2,0-1.8c0,0.6,0,1.3-0.1,1.9c-0.1,15.6-0.1,31.2,0,46.8
		c-0.2,6.8,3.5,13.1,9.6,16.3c3.4,1.9,7.4,3.6,11.2,3.7c10.5,0.4,20.9,0.1,31.4-0.2c5.5-0.1,11-0.7,16.4-1.2
		c5.2-0.5,9.6-2.5,10.7-8.2c1-5.3,2.2-10.5,2.3-15.8c-0.2,5.2-1.3,10.5-2.3,15.6C242.5,408.3,238.1,410.4,232.9,410.9z"/>
	<path class="st0" d="M224.2,271.6c0,1.4-0.1,2.7-0.2,4C224.1,274.3,224.2,272.9,224.2,271.6C224.2,271.5,224.2,271.6,224.2,271.6z"
		/>
	<path class="st0" d="M245.9,316.7C245.8,316.7,245.8,316.7,245.9,316.7c-0.4,3-0.9,5.5-1.1,7.8C245,322.2,245.5,319.7,245.9,316.7z
		"/>
	<path class="st0" d="M178.2,274.9c-0.3-5.2-0.9-10.4-0.6-15.6c0,0,0,0.1,0,0.1c-0.3,5.2,0.3,10.4,0.6,15.6
		c0.4,6.2,1.1,12.4,1.2,18.5c0,0.5,0,1-0.1,1.5c0.1-0.5,0.1-1,0.1-1.6C179.4,287.3,178.5,281.1,178.2,274.9z"/>
	<path class="st0" d="M291,243.7c-4.1-5.9-7.2-12.1-8.4-19.4c-1.1-5.4-2.5-10.7-4.1-15.9c-3.9-13.4-11.9-22.3-26.3-24.4
		c-0.8-0.1-1.5-0.3-2.2-0.4l-19.3-3.3c5.1-2.4,9.1-4.3,13.1-6.1c7-3.2,13.1-7.4,16.9-14.3c6.5-12,9.9-24.5,8.8-38.4
		c-1-13-4.7-24.4-14.5-33.4c-1.1-1-2.1-2.2-2.8-3.5c-6.4-13.6-12.3-27.3-12.7-42.7c-0.4-11.3-0.5-22.5,4.4-33
		c0.8-1.7,1.3-3.5,1.6-5.3c0.2-1,0-2.7-0.5-3c-1.1-0.5-2.3-0.5-3.4,0c-1.7,1-3.2,2.3-4.6,3.7c-10.6,10.2-21.2,20.4-31.6,30.8
		c-4.4,4.4-7.9,9.8-12.4,13.9c-8.4,7.6-16.2,16-23.2,24.9c-12.8,16.4-19.5,34.7-17.2,55.7c0.7,5.6,1.9,11.1,3.6,16.4
		c3.7,12.7,10.4,23.4,22.1,30.3c2.5,1.5,5,3,8.1,4.9c-16.6,3.3-31,9.2-41.8,22c-10.1,12-14.2,25.3-8.6,40.5
		c1.6,4.6,1.9,9.5,0.9,14.3c-1.5,7.7-6,13.9-9.2,20.7c-1,2.2-1.6,4.6-1.8,7.1c-1,7.9,1.7,14.7,6.2,21c1.6,2.3,3.1,5,3.3,7.7
		c2,26.2,1,52.4-2,78.5c-0.8,6.7-1.7,13.6-0.8,20.1c0.7,4.8,2.9,11,6.5,13.6c17.3,12.2,37.2,17.7,58.1,18.5
		c16.6,0.6,33.1-1.2,49-6.9c10.4-3.7,19.4-10.4,26-19.2c0.6-0.8,0.9-1.8,1-2.7c0.9-16.2,1.9-32.4,2.6-48.6c0.2-3.8-0.4-7.7-0.6-11.6
		c-0.5-10.6-0.9-21.2-1.4-32.1c2.2,0.1,3.9,0.7,5.3,0.2c10.4-4.1,15-15,10.5-25.3c-2.6-6-5.6-11.8-8.6-18c1.8-1,4.1-2.2,6.4-3.4
		c5.5-2.6,9.1-7.9,9.4-13.9C297.2,256.5,295.2,249.4,291,243.7z M183,151.6c-0.5-0.8-1-1.7-1.4-2.6c-5.5-11.7-8.7-23.8-3.8-36.5
		c1.8-4.9,4.2-9.6,7.3-13.8c11.3-14.8,23-29.2,34.6-43.7c0.5-0.7,0.9-1.5,1.3-2.3l1.2,0.9c0.4,4.2,0.7,8.5,1.2,12.8
		c0.2,1.9,0.5,3.9,0.9,5.8c1.2,5.1,2.8,10,4.8,14.8c4.3,11,9.4,21.8,13,33c4.9,15.2-1.8,31.8-16,39.2c-8.6,4.7-18.6,5.8-28,3.2
		C192.1,160.7,186.5,157.2,183,151.6z M245.9,387.1c-0.1,5.2-1.3,10.4-2.3,15.8c-1.1,5.7-5.5,7.7-10.7,8.2c-5.4,0.5-11,1.1-16.4,1.2
		c-10.5,0.3-20.9,0.6-31.4,0.2c-3.8-0.2-7.8-1.8-11.2-3.7c-6-3.2-9.7-9.5-9.6-16.3c-0.1-15.6-0.1-31.2,0-46.8c0-0.6,0-1.3,0.1-1.9
		c0.1-3.9,0.4-7.8,0.8-11.6c0.1-0.7,0.1-1.4,0.2-2.2c0.5-5,0.8-10-0.1-15.2c-0.3-1.9-0.5-3.5-0.4-4.8c0.2-3.8,2.4-5.5,7.9-7.7
		c3.4-1.4,6-3.7,6.6-7c0.1-0.5,0.1-1,0.1-1.5c0-6.2-0.8-12.4-1.2-18.5c-0.3-5.2-1-10.4-0.6-15.6c0,0,0-0.1,0-0.1c0,0,0,0,0,0
		c0.4-6,4.1-9.8,9.9-11.3c2.7-0.6,5.4-1.2,8.3-1.9c0.2,0,0.4-0.1,0.5-0.1h0c0,0.5,0.1,1,0.1,1.6c0,0.2,0,0.4,0,0.6
		c0,0.3,0,0.6,0,0.9c0,0,0,0,0,0c0,0,0,0.1,0,0.1c-0.3,1.3-0.5,2.7-0.7,4c-1,9.4,2,18.2,5,26.9c0.7,1.9,1.8,3.6,3.2,5
		c2.9,3,6.2,6,10.7,4.8c5-1.3,7.8-5.2,8.9-10.2c0.2-1.3,0.4-2.7,0.6-4c0.1-1.3,0.2-2.7,0.2-4c0,0,0,0,0-0.1c0,0,0,0,0,0
		c0.3-4.9,2.9-8.4,6.3-11.5c1.9-1.8,3.5-1.2,3.5,1.2c0.1,6.3,3.5,11.3,5.1,17c1.2,4.2,0.3,8.9,0.9,13.3c1,7.2,2.3,14.3,3.7,21.3
		c0.4,1.7,1.7,3.2,2.1,3.9c0,0,0,0.1,0,0.1c0,0,0,0,0,0c-0.4,3-0.9,5.5-1.1,7.8c-0.1,0.8-0.1,1.6-0.1,2.3
		c0.4,19.6,1.1,39.2,1.3,58.8C245.9,386.2,245.9,386.6,245.9,387.1z M171.5,199.2c21.3-13.8,62.3-10.2,76.7,6.8
		C230.3,215.7,180.2,211.1,171.5,199.2z"/>
	<path class="st0" d="M88.9,314.4c-8.6-2.4-18-2.3-27-3.3l-1.3-0.7c6.3-5.9,12.9-11.3,18.7-17.7c6.9-7.6,15.3-11.3,25.1-12.5
		c9.5-1.2,17.1-6.2,23.3-13.1c2.7-3.1,4.7-6.7,5.6-10.7c3-13.7-12.7-26.2-27-21.5c-28.8,9.4-52.7,26.5-72.6,49.2
		c-14.4,16.4-24.5,35-28.3,56.9c-2.2,12.3-3.6,24.7-0.6,36.7c2.2,9,5.6,18.1,10.6,25.8c7.6,11.9,17.4,22.2,30.1,29.2
		c17.3,9.5,35,10.3,52.2,0.6c26.8-15.2,27.6-19.1,32.8-43.8c1.9-8.8,0.7-18.4-0.1-27.6C128.2,336.6,111.3,320.6,88.9,314.4z
		 M96.7,390.5c-3.8,6.7-10.2,11.8-18.1,13.9c-3.5,0.9-7.7,0.6-11.3-0.2c-3.6-0.8-7-2.6-10.3-4.3c-7.8-4-12.6-9.6-15.2-16.4
		c-1.6-4.2-2.3-8.8-2.2-13.9c0-0.9,0-1.8,0.1-2.7c0.7-10.5,13.7-22.3,25.1-23.5c1.9-0.2,3.7-0.3,5.6-0.4
		c14.7-1.3,26.2,7.8,29.2,23.5c0.4,2.1,0.7,4.2,0.9,6.3C101.2,379.1,99.7,385.3,96.7,390.5z"/>
	<path class="st0" d="M25.4,244.3c5.3-3.5,10.8-6.8,16.3-10c1.8-1.1,3.8-2.4,5.8-2.5c6.8-0.5,13.6-0.7,20.5-0.4
		c5.9,0.3,11.8,2.2,17.8,2.4c19.3,0.7,35-7.1,47.2-21.8c3.3-4,6.4-9.3,6.9-14.3c1.6-17-1.1-33-16.2-44.2c-1.6-1.2-3.1-2.5-4.6-3.9
		c-4.9-4.6-5.3-9.3-1-14.5c1.3-1.5,2.7-2.9,4.3-4.2c3.1-2.6,6.3-5,9.3-7.5c10-8.2,14.6-18.8,12.6-31.5
		c-2.7-17.8-18.7-34.6-43.5-31.2c-8.5,1.2-17,2.7-25.5,4c-15,2.3-29.9,3.4-44.5-2.7c-7.8-3.2-12.8-0.9-17.8,6
		c-1.3,1.6-2.5,3.4-3.5,5.3C6.5,80,5.5,87.2,9.8,92.8c8.3,10.9,19.8,15.9,33.6,14.1c10.6-1.4,21.2-3.2,31.8-5.3
		c6.7-1.3,13.2-3.5,19.9-5.1c5-1.2,7-0.1,9.6,4.3c4.3,7.4,1.2,19.6-6.5,24.1c-3.3,2.1-6.8,3.6-10.6,4.7c-9.2,2.3-18.5,4.2-27.8,5.9
		c-5.9,1.1-9.3,4.6-10.9,10c-0.8,3-1.3,6.1-1.6,9.2c-0.9,8.9,3.7,14.9,12.6,15.5c7.7,0.5,15.4,0.1,23.2,0.1v0.1
		c2.9-0.2,5.7-0.1,8.6,0c12.8,1.7,16.1,4.2,18.1,14.2c0.9,4.6-0.2,7.8-3.8,10.4c-5.7,4.2-12,7.8-19.2,7.5
		c-8.8-0.4-17.6-1.5-26.4-2.6c-14.6-1.8-29.1-3.7-42.9,3.3c-5.9,3-11.4,6.5-14.7,12.3c-4.8,8.7-3.1,16.6,2.6,24.7
		C10.7,247.5,19.3,248.3,25.4,244.3z"/>
	<path class="st0" d="M182.4,130.8l0.4-0.1c0-1.5,0.2-3,0.4-4.5c4.2-16,10.3-31.1,21.7-43.4c2.8-2.9,6.8-4.8,10.6-6.6
		c1.4-0.7,2.7-0.5,3.4,0.4c0.6,0.6,1,1.7,0.9,3c-0.1,2-0.5,4-1,5.9c-2.4,9.3-1,16.7,4.9,22.9c1.3,1.4,2.9,2.8,4.7,4.1
		c1,0.7,1.9,1.6,2.6,2.4c2.2,2.6,3.2,5.9,4.2,9.3c3.3,11.9-1.1,21.2-9.7,28.8c-2.9,2.5-7.4,4-11.3,4.5c-8.5,1.3-16.8-0.3-23.6-6
		c-0.6-0.5-1.1-1.1-1.6-1.7c-1.5-1.8-2.7-3.8-3.4-6C184.1,139.7,183.4,135.2,182.4,130.8z"/>
	<path class="st0" d="M185.7,143.9c0.7,2.2,1.9,4.2,3.4,5.9c0.5,0.6,1,1.2,1.6,1.7c6.8,5.7,15,7.3,23.6,6c3.9-0.5,8.4-2,11.3-4.5
		c8.5-7.5,13-16.9,9.7-28.8c-1-3.4-2-6.7-4.2-9.3c-0.7-0.9-1.5-1.7-2.5-2.4c-1.8-1.3-3.4-2.7-4.8-4.1c-5.8-6.2-7.3-13.6-4.9-22.9
		c0.5-1.9,0.9-3.9,1-5.9c0.1-1.3-0.3-2.4-0.9-3c-0.8-0.8-2-1-3.4-0.3c-3.8,1.8-7.8,3.7-10.6,6.6c-11.5,12.3-17.5,27.4-21.7,43.4
		c-0.3,1.5-0.4,3-0.5,4.5l-0.3,0.2C183.5,135.2,184.1,139.7,185.7,143.9z"/>
</g>
</svg>
